<?xml version="1.0" standalone="no"?>
<!DOCTYPE svg PUBLIC "-//W3C//DTD SVG 20010904//EN"
 "http://www.w3.org/TR/2001/REC-SVG-20010904/DTD/svg10.dtd">
<svg version="1.0" xmlns="http://www.w3.org/2000/svg"
 width="1200.000000pt" height="628.000000pt" viewBox="0 0 1200.000000 628.000000"
 preserveAspectRatio="xMidYMid meet">

<g transform="translate(0.000000,628.000000) scale(0.100000,-0.100000)"
fill="#000000" stroke="none">
<path d="M7386 3679 c-50 -39 -17 -119 50 -119 33 0 64 34 64 69 0 32 -39 71
-70 71 -10 0 -29 -9 -44 -21z"/>
<path d="M3510 3624 c0 -4 43 -90 95 -191 l95 -183 0 -100 0 -100 60 0 60 0 0
103 0 104 90 172 c50 95 90 180 90 188 0 11 -13 13 -57 11 l-58 -3 -63 -130
-64 -130 -49 105 c-76 163 -68 155 -138 158 -34 2 -61 0 -61 -4z"/>
<path d="M5761 3608 c-91 -45 -119 -162 -55 -237 15 -19 51 -39 97 -56 153
-57 167 -67 167 -110 0 -29 -46 -65 -83 -65 -38 0 -82 29 -92 60 -5 17 -15 20
-66 20 -66 0 -70 -6 -45 -63 20 -47 64 -83 124 -102 148 -48 294 47 279 182
-7 69 -49 105 -162 143 -105 35 -141 64 -131 104 9 37 49 60 88 52 35 -7 68
-32 68 -53 0 -9 17 -13 65 -13 62 0 65 1 65 24 0 36 -40 87 -89 113 -60 32
-167 32 -230 1z"/>
<path d="M6210 3565 c0 -55 0 -55 -31 -55 -30 0 -30 -1 -27 -47 3 -44 5 -48
31 -51 l27 -3 0 -136 c0 -109 3 -140 17 -164 24 -40 70 -59 143 -59 l61 0 -3
48 -3 47 -40 3 c-59 4 -65 19 -65 149 l0 113 56 0 55 0 -3 48 -3 47 -50 5 -50
5 -3 53 -3 52 -55 0 -54 0 0 -55z"/>
<path d="M4176 3490 c-55 -27 -72 -45 -101 -103 -62 -125 -9 -273 117 -327 63
-27 142 -24 205 9 166 84 165 341 -2 420 -60 28 -164 28 -219 1z m174 -100
c38 -27 53 -70 48 -130 -9 -90 -87 -140 -163 -104 -49 23 -69 69 -63 143 4 45
10 59 37 83 39 35 99 38 141 8z"/>
<path d="M4602 3343 c3 -150 6 -172 25 -209 25 -47 51 -67 112 -85 51 -15 123
0 159 33 l22 21 0 -26 c0 -26 2 -27 60 -27 l60 0 0 230 0 230 -60 0 -60 0 0
-144 c0 -80 -4 -156 -10 -170 -5 -15 -25 -34 -44 -43 -30 -14 -42 -15 -76 -4
-62 18 -70 43 -70 216 l0 145 -61 0 -61 0 4 -167z"/>
<path d="M5157 3503 c-4 -3 -7 -107 -7 -230 l0 -223 59 0 60 0 3 146 c3 146 3
146 31 170 19 17 40 24 68 24 l39 0 0 60 c0 58 -1 60 -26 60 -30 0 -60 -14
-91 -43 l-23 -20 0 31 c0 32 0 32 -53 32 -30 0 -57 -3 -60 -7z"/>
<path d="M6604 3485 c-112 -56 -156 -204 -96 -321 69 -134 250 -165 366 -63
59 52 80 107 74 197 -4 82 -34 136 -100 179 -34 23 -54 29 -117 31 -66 3 -83
0 -127 -23z m192 -109 c31 -31 34 -40 34 -91 0 -36 -6 -68 -17 -86 -18 -30
-67 -59 -101 -59 -27 0 -84 41 -99 70 -28 55 -7 152 38 184 13 9 43 16 67 16
37 0 50 -6 78 -34z"/>
<path d="M7040 3280 l0 -231 58 3 57 3 5 147 c6 169 9 177 85 186 54 6 60 15
51 77 -9 54 -28 58 -93 21 -44 -25 -53 -24 -53 6 0 15 -8 18 -55 18 l-55 0 0
-230z"/>
<path d="M7370 3280 l0 -230 60 0 60 0 0 230 0 230 -60 0 -60 0 0 -230z"/>
<path d="M7692 3489 c-52 -26 -89 -72 -108 -135 -18 -60 -18 -88 1 -152 20
-66 57 -109 120 -138 102 -48 223 -18 283 71 33 48 29 55 -34 55 -45 0 -62 -5
-86 -25 -42 -35 -98 -34 -137 3 -16 15 -32 37 -36 50 l-6 22 170 0 171 0 0 43
c0 95 -47 173 -125 208 -57 26 -158 25 -213 -2z m163 -84 c29 -14 55 -50 55
-75 0 -12 -207 -13 -214 -2 -3 5 4 23 15 41 31 50 84 64 144 36z"/>
<path d="M8185 3496 c-46 -20 -85 -71 -85 -111 0 -80 32 -109 166 -150 84 -26
102 -42 84 -75 -21 -39 -105 -33 -132 10 -10 16 -23 20 -70 20 -61 0 -66 -5
-47 -43 50 -96 184 -134 293 -82 47 22 76 67 76 117 0 54 -43 99 -117 123
-114 35 -143 51 -143 75 0 20 34 40 67 40 26 0 42 -8 63 -30 23 -25 36 -30 75
-30 l48 0 -6 36 c-7 43 -39 81 -84 100 -41 18 -148 17 -188 0z"/>
</g>
</svg>
